
<svg xmlns="http://www.w3.org/2000/svg" width="193" height="42" viewBox="0 0 193 42" fill="none">
<g clip-path="url(#clip0_2753_173)">
<path d="M18.765 18.8005C18.7882 18.8005 18.8111 18.8051 18.8325 18.814C18.8538 18.8229 18.8732 18.836 18.8895 18.8525L24.7795 24.7477C24.8033 24.7722 24.8194 24.8031 24.8259 24.8365C24.8324 24.87 24.8289 24.9047 24.8159 24.9363C24.803 24.9678 24.7811 24.9949 24.7529 25.0142C24.7248 25.0334 24.6916 25.0441 24.6575 25.0447H23.152C23.0545 25.0447 22.9745 25.1222 22.9718 25.2197V38.4735C22.9738 39.3124 23.3072 40.1165 23.8993 40.7107L24.7793 41.5907C24.8029 41.6152 24.819 41.646 24.8254 41.6794C24.8319 41.7129 24.8284 41.7475 24.8155 41.7789C24.8026 41.8104 24.7807 41.8375 24.7527 41.8568C24.7246 41.876 24.6915 41.8867 24.6575 41.8875H17.7125C15.9558 41.8875 14.5318 40.4635 14.5318 38.7067V25.2197C14.5318 25.1967 14.5272 25.174 14.5184 25.1528C14.5096 25.1315 14.4967 25.1122 14.4805 25.096C14.4642 25.0797 14.445 25.0668 14.4237 25.0581C14.4025 25.0493 14.3797 25.0447 14.3568 25.0447H12.8723C12.8377 25.0451 12.8038 25.0352 12.7749 25.0163C12.7459 24.9974 12.7232 24.9704 12.7096 24.9387C12.696 24.9069 12.6921 24.8718 12.6984 24.8378C12.7047 24.8039 12.7209 24.7725 12.745 24.7477L18.6403 18.8527C18.6565 18.8361 18.6759 18.8229 18.6973 18.8139C18.7188 18.8049 18.7418 18.8003 18.765 18.8002V18.8005ZM31.7908 22.2145C31.8139 22.2145 31.8369 22.2191 31.8582 22.2281C31.8796 22.2371 31.899 22.2502 31.9153 22.2667L37.8105 28.1407C37.8346 28.1655 37.8508 28.1969 37.8571 28.2308C37.8634 28.2648 37.8595 28.2999 37.8459 28.3317C37.8323 28.3634 37.8096 28.3904 37.7806 28.4093C37.7517 28.4282 37.7178 28.4381 37.6833 28.4377H36.1778C36.0803 28.4405 36.0028 28.5202 36.0028 28.6177V38.4735C36.0035 39.3116 36.335 40.1156 36.9253 40.7107L37.8105 41.5907C37.8345 41.6155 37.8507 41.6468 37.8569 41.6808C37.8632 41.7147 37.8592 41.7497 37.8456 41.7815C37.832 41.8132 37.8094 41.8402 37.7805 41.859C37.7516 41.8779 37.7178 41.8878 37.6833 41.8875H30.7543C28.9975 41.8875 27.5733 40.4635 27.5733 38.7067V28.6285C27.5733 28.531 27.4958 28.451 27.3983 28.4482H25.8983C25.8641 28.4476 25.831 28.4369 25.8028 28.4177C25.7747 28.3984 25.7528 28.3713 25.7398 28.3398C25.7268 28.3082 25.7234 28.2735 25.7299 28.24C25.7363 28.2066 25.7525 28.1757 25.7763 28.1512L31.6663 22.2667C31.6825 22.2502 31.7019 22.2371 31.7233 22.2281C31.7446 22.2191 31.7676 22.2145 31.7908 22.2145ZM44.8193 25.592C44.865 25.592 44.9093 25.6107 44.941 25.6437L50.8363 31.5337C50.8618 31.5579 50.8795 31.5892 50.8871 31.6235C50.8946 31.6579 50.8916 31.6937 50.8785 31.7264C50.8653 31.759 50.8426 31.7869 50.8134 31.8065C50.7841 31.826 50.7497 31.8363 50.7145 31.836H49.2035C49.1571 31.836 49.1126 31.8544 49.0798 31.8872C49.0469 31.9201 49.0285 31.9646 49.0285 32.011V38.4735C49.0306 39.3124 49.3641 40.1165 49.9563 40.7107L50.8363 41.5907C50.8599 41.6152 50.876 41.646 50.8824 41.6794C50.8889 41.7129 50.8854 41.7475 50.8725 41.7789C50.8596 41.8104 50.8377 41.8375 50.8097 41.8568C50.7816 41.876 50.7485 41.8867 50.7145 41.8875H43.7643C42.0075 41.8875 40.5833 40.4635 40.5833 38.7067V32.0107C40.5833 31.9643 40.5648 31.9198 40.532 31.887C40.4992 31.8542 40.4547 31.8357 40.4083 31.8357H38.924C38.8889 31.8361 38.8544 31.8258 38.8252 31.8063C38.796 31.7867 38.7733 31.7589 38.7601 31.7263C38.747 31.6937 38.7439 31.6579 38.7514 31.6236C38.7589 31.5892 38.7765 31.5579 38.802 31.5337L44.697 25.6437C44.7129 25.6273 44.7319 25.6143 44.7529 25.6054C44.7739 25.5965 44.7964 25.5919 44.8193 25.592ZM31.6715 -0.000520477C40.9315 0.0669795 49.099 6.08023 51.9125 14.903C58.79 15.8005 63.95 21.635 64 28.57C64 34.2937 60.4203 39.0502 54.6405 41.0305L54.4255 41.1027L54.1605 41.1875V36.9145C57.8343 35.3665 59.992 32.3075 59.992 28.57C59.9733 23.2957 55.7965 18.9892 50.547 18.7885L50.3698 18.7835H48.7795L48.3978 17.267C46.5243 9.53448 39.6278 4.06948 31.6715 4.01323C25.1248 3.98198 19.1465 7.70198 16.2775 13.5707L15.6875 14.786L14.574 14.9027C9.54601 15.4405 5.41725 19.1182 4.304 24.051C3.2065 28.9132 5.2785 33.9327 9.4655 36.6087L9.649 36.7237V41.23H9.62251L9.22501 41.0497C2.93601 38.159 -0.747495 31.52 0.127505 24.654C1.003 17.7882 6.2345 12.2855 13.0475 11.0645C16.728 4.21273 23.8938 -0.0442705 31.6715 -0.000520477Z" fill="#DDE1F9"/>
</g>
<path d="M79.4688 12.4688C79.4271 12.4062 79.3542 12.3438 79.25 12.2812C79.1667 12.2188 79.0625 12.1667 78.9375 12.125C78.8125 12.0833 78.6875 12.0729 78.5625 12.0938C78.4583 12.0938 78.375 12.1354 78.3125 12.2188C78.25 12.3229 78.1354 12.7188 77.9688 13.4062C77.8229 14.0729 77.6667 14.9062 77.5 15.9062C77.3333 16.9062 77.1875 18.0208 77.0625 19.25C76.9375 20.4792 76.875 21.6979 76.875 22.9062C76.875 23.7812 76.9062 24.6979 76.9688 25.6562C77.0312 26.5938 77.1042 27.4583 77.1875 28.25C77.2917 29.0417 77.4062 29.6979 77.5312 30.2188C77.6771 30.7188 77.8229 30.9688 77.9688 30.9688C78.1146 30.9896 78.3125 30.8333 78.5625 30.5C78.8125 30.1667 79.0521 29.7917 79.2812 29.375C79.5104 28.9375 79.7188 28.5208 79.9062 28.125C80.1146 27.7083 80.25 27.4271 80.3125 27.2812C80.3958 27.0521 80.5104 26.8021 80.6562 26.5312C80.8021 26.2396 80.9479 25.9792 81.0938 25.75C81.2396 25.5 81.3854 25.3021 81.5312 25.1562C81.6771 24.9896 81.8021 24.9062 81.9062 24.9062C82.0312 24.9062 82.1354 25.0312 82.2188 25.2812C82.3229 25.5312 82.3958 25.8333 82.4375 26.1875C82.5 26.5208 82.5417 26.875 82.5625 27.25C82.5833 27.6042 82.5938 27.8958 82.5938 28.125C82.5938 28.5417 82.5104 29.0625 82.3438 29.6875C82.1979 30.3125 82 30.9167 81.75 31.5C81.5208 32.0833 81.2604 32.5833 80.9688 33C80.6979 33.4167 80.4375 33.6146 80.1875 33.5938C79.9375 33.5729 79.5312 33.4271 78.9688 33.1562C78.4271 32.8854 77.8646 32.5729 77.2812 32.2188C76.6979 31.8646 76.1667 31.5104 75.6875 31.1562C75.2083 30.8021 74.9271 30.5208 74.8438 30.3125C74.7396 30.125 74.5833 29.6771 74.375 28.9688C74.1875 28.2396 73.9896 27.3646 73.7812 26.3438C73.5729 25.3229 73.3854 24.1979 73.2188 22.9688C73.0729 21.7396 73 20.5 73 19.25C73 18 73.0104 16.7708 73.0312 15.5625C73.0521 14.3333 73.0938 13.2396 73.1562 12.2812C73.2396 11.3229 73.3646 10.5521 73.5312 9.96875C73.6979 9.36458 73.9271 9.04167 74.2188 9C74.8021 8.9375 75.4375 8.97917 76.125 9.125C76.8125 9.25 77.5 9.44792 78.1875 9.71875C78.875 9.98958 79.5312 10.3021 80.1562 10.6562C80.8021 10.9896 81.375 11.3438 81.875 11.7188C82.375 12.0729 82.7708 12.4167 83.0625 12.75C83.375 13.0833 83.5417 13.3646 83.5625 13.5938C83.5833 13.9479 83.5417 14.3438 83.4375 14.7812C83.3333 15.2188 83.2083 15.6458 83.0625 16.0625C82.9167 16.4583 82.7604 16.8229 82.5938 17.1562C82.4479 17.4688 82.3333 17.6875 82.25 17.8125C82.1458 17.9583 82.0208 18.1146 81.875 18.2812C81.7292 18.4479 81.5729 18.5938 81.4062 18.7188C81.2604 18.8438 81.1042 18.9375 80.9375 19C80.7917 19.0417 80.6562 19.0104 80.5312 18.9062C80.4479 18.8438 80.3646 18.6458 80.2812 18.3125C80.2188 17.9792 80.1458 17.5833 80.0625 17.125C80 16.6667 79.9375 16.1771 79.875 15.6562C79.8125 15.1146 79.75 14.6146 79.6875 14.1562C79.6458 13.6979 79.6042 13.3125 79.5625 13C79.5208 12.6875 79.4896 12.5104 79.4688 12.4688ZM84.9062 33.9688C84.8646 33.8646 84.8438 33.4896 84.8438 32.8438C84.8438 32.1979 84.8438 31.3854 84.8438 30.4062C84.8646 29.4271 84.8854 28.3333 84.9062 27.125C84.9479 25.8958 84.9792 24.6562 85 23.4062C85.0417 22.1354 85.0833 20.9062 85.125 19.7188C85.1667 18.5104 85.1979 17.4375 85.2188 16.5C85.2604 15.5625 85.2917 14.8021 85.3125 14.2188C85.3333 13.6146 85.3542 13.2917 85.375 13.25C85.3958 13.1667 85.4896 12.9583 85.6562 12.625C85.8229 12.2917 86.0104 11.9479 86.2188 11.5938C86.4479 11.2188 86.6771 10.8958 86.9062 10.625C87.1354 10.3333 87.3333 10.1979 87.5 10.2188C87.5625 10.2396 87.6146 10.6562 87.6562 11.4688C87.7188 12.2604 87.7708 13.2812 87.8125 14.5312C87.875 15.7812 87.9167 17.1667 87.9375 18.6875C87.9792 20.1875 88.0104 21.6562 88.0312 23.0938C88.0729 24.5104 88.1042 25.8021 88.125 26.9688C88.1458 28.1146 88.1667 28.9583 88.1875 29.5C88.8542 29.5625 89.5208 29.6146 90.1875 29.6562C90.875 29.6979 91.4896 29.75 92.0312 29.8125C92.5729 29.8542 93.0104 29.8958 93.3438 29.9375C93.6979 29.9792 93.8854 30.0104 93.9062 30.0312C93.9688 30.1146 94.0521 30.3125 94.1562 30.625C94.2812 30.9167 94.3958 31.2396 94.5 31.5938C94.6042 31.9271 94.6771 32.2396 94.7188 32.5312C94.7812 32.8229 94.7708 33 94.6875 33.0625C92.2917 33.5 90.4375 33.7917 89.125 33.9375C87.8125 34.0833 86.8438 34.1562 86.2188 34.1562C85.4896 34.1562 85.0521 34.0938 84.9062 33.9688ZM95.25 12.875C95.3542 12.6875 95.5729 12.4479 95.9062 12.1562C96.2396 11.8438 96.6354 11.5312 97.0938 11.2188C97.5729 10.9062 98.0833 10.625 98.625 10.375C99.1667 10.1042 99.7083 9.92708 100.25 9.84375C100.812 9.73958 101.333 9.76042 101.812 9.90625C102.312 10.0312 102.74 10.3229 103.094 10.7812C103.281 11.0104 103.458 11.4688 103.625 12.1562C103.792 12.8438 103.948 13.6771 104.094 14.6562C104.26 15.6146 104.406 16.6875 104.531 17.875C104.656 19.0417 104.76 20.2396 104.844 21.4688C104.927 22.6771 104.979 23.875 105 25.0625C105.042 26.2292 105.042 27.3125 105 28.3125C104.979 29.2917 104.917 30.1354 104.812 30.8438C104.729 31.5312 104.594 32.0104 104.406 32.2812C104.031 32.8229 103.448 33.1875 102.656 33.375C101.865 33.5625 101.031 33.5625 100.156 33.375C99.2812 33.2083 98.4479 32.8542 97.6562 32.3125C96.8646 31.7708 96.2812 31.0417 95.9062 30.125C95.6562 29.5208 95.4479 28.6979 95.2812 27.6562C95.1354 26.6146 95.0208 25.4896 94.9375 24.2812C94.8542 23.0521 94.8021 21.8021 94.7812 20.5312C94.7812 19.2604 94.7917 18.0938 94.8125 17.0312C94.8542 15.9479 94.9062 15.0312 94.9688 14.2812C95.0521 13.5312 95.1458 13.0625 95.25 12.875ZM101.375 28.7188C101.5 28.5938 101.583 28.2604 101.625 27.7188C101.688 27.1562 101.719 26.5 101.719 25.75C101.74 24.9792 101.74 24.1667 101.719 23.3125C101.719 22.4583 101.719 21.6667 101.719 20.9375C101.719 19.0833 101.656 17.6458 101.531 16.625C101.406 15.6042 101.26 14.8438 101.094 14.3438C100.906 13.7604 100.698 13.3958 100.469 13.25C100.156 13.3125 99.8958 13.4167 99.6875 13.5625C99.4792 13.6875 99.3125 13.8333 99.1875 14C99.0417 14.1875 98.9271 14.3854 98.8438 14.5938C98.7812 14.7812 98.7083 15.1458 98.625 15.6875C98.5625 16.2292 98.5 16.875 98.4375 17.625C98.375 18.3542 98.3125 19.1562 98.25 20.0312C98.2083 20.8854 98.1667 21.7292 98.125 22.5625C98.1042 23.3958 98.0833 24.1875 98.0625 24.9375C98.0625 25.6667 98.0729 26.2708 98.0938 26.75C98.1354 27.4792 98.3021 28.0104 98.5938 28.3438C98.9062 28.6771 99.2396 28.8958 99.5938 29C99.9479 29.0833 100.292 29.0833 100.625 29C100.979 28.9167 101.229 28.8229 101.375 28.7188ZM116.25 8.9375C116.312 9.02083 116.385 9.44792 116.469 10.2188C116.573 10.9688 116.677 11.9062 116.781 13.0312C116.906 14.1562 117.031 15.3854 117.156 16.7188C117.281 18.0312 117.396 19.3021 117.5 20.5312C117.604 21.7396 117.698 22.8229 117.781 23.7812C117.865 24.7188 117.927 25.375 117.969 25.75C118.031 26.3125 118.125 27 118.25 27.8125C118.396 28.625 118.531 29.4271 118.656 30.2188C118.802 30.9896 118.917 31.6667 119 32.25C119.083 32.8333 119.094 33.1771 119.031 33.2812C118.969 33.3854 118.76 33.375 118.406 33.25C118.052 33.125 117.667 32.9479 117.25 32.7188C116.833 32.4896 116.438 32.2396 116.062 31.9688C115.708 31.6979 115.479 31.4688 115.375 31.2812C115.271 31.0729 115.156 30.7292 115.031 30.25C114.906 29.75 114.771 29.0938 114.625 28.2812C114.354 28.7812 114.052 29.2917 113.719 29.8125C113.385 30.3333 113.062 30.8125 112.75 31.25C112.438 31.6875 112.146 32.0521 111.875 32.3438C111.625 32.6146 111.438 32.7396 111.312 32.7188C111.104 32.6979 110.781 32.4271 110.344 31.9062C109.927 31.3646 109.5 30.7604 109.062 30.0938C108.625 29.4062 108.229 28.7604 107.875 28.1562C107.542 27.5312 107.354 27.1146 107.312 26.9062C107.292 26.7812 107.281 26.5 107.281 26.0625C107.281 25.6042 107.281 25.0625 107.281 24.4375C107.302 23.8125 107.323 23.1354 107.344 22.4062C107.385 21.6562 107.417 20.9271 107.438 20.2188C107.479 19.4896 107.51 18.8021 107.531 18.1562C107.573 17.5104 107.615 16.9792 107.656 16.5625C107.698 15.9167 107.75 15.25 107.812 14.5625C107.896 13.8542 107.969 13.1979 108.031 12.5938C108.115 11.9896 108.188 11.4792 108.25 11.0625C108.333 10.625 108.406 10.3542 108.469 10.25C108.51 10.1667 108.635 10.1146 108.844 10.0938C109.073 10.0729 109.323 10.0938 109.594 10.1562C109.865 10.1979 110.115 10.2812 110.344 10.4062C110.573 10.5104 110.729 10.6458 110.812 10.8125C110.854 10.9167 110.875 11.3333 110.875 12.0625C110.896 12.7708 110.906 13.625 110.906 14.625C110.906 15.625 110.896 16.7083 110.875 17.875C110.875 19.0208 110.865 20.1042 110.844 21.125C110.823 22.1458 110.802 23.0208 110.781 23.75C110.781 24.4583 110.781 24.875 110.781 25C110.781 25.2292 110.938 25.5938 111.25 26.0938C111.583 26.5729 111.885 27.1562 112.156 27.8438L114.125 25.625C114.104 25.0417 114.083 24.2917 114.062 23.375C114.062 22.4583 114.052 21.4896 114.031 20.4688C114.01 19.4271 113.99 18.3854 113.969 17.3438C113.969 16.2812 113.969 15.3125 113.969 14.4375C113.969 13.5625 113.969 12.8438 113.969 12.2812C113.99 11.6979 114.01 11.3646 114.031 11.2812C114.094 11.1146 114.219 10.875 114.406 10.5625C114.615 10.2292 114.833 9.92708 115.062 9.65625C115.292 9.36458 115.521 9.13542 115.75 8.96875C115.979 8.80208 116.146 8.79167 116.25 8.9375ZM124.25 9.78125C124.667 9.86458 125.24 10.1146 125.969 10.5312C126.698 10.9271 127.427 11.3854 128.156 11.9062C128.906 12.4062 129.562 12.9062 130.125 13.4062C130.688 13.8854 131.021 14.2292 131.125 14.4375C131.208 14.6458 131.24 15.0312 131.219 15.5938C131.198 16.1562 131.135 16.8438 131.031 17.6562C130.927 18.4479 130.792 19.3229 130.625 20.2812C130.458 21.2396 130.271 22.2083 130.062 23.1875C129.854 24.1458 129.625 25.0833 129.375 26C129.146 26.8958 128.906 27.6875 128.656 28.375C128.552 28.7083 128.323 29.0729 127.969 29.4688C127.615 29.8646 127.198 30.2604 126.719 30.6562C126.24 31.0312 125.729 31.3854 125.188 31.7188C124.667 32.0521 124.167 32.3333 123.688 32.5625C123.229 32.7917 122.812 32.9479 122.438 33.0312C122.083 33.1146 121.844 33.0938 121.719 32.9688C121.594 32.8438 121.458 32.4479 121.312 31.7812C121.188 31.0938 121.062 30.2396 120.938 29.2188C120.812 28.1771 120.698 27.0208 120.594 25.75C120.49 24.4583 120.396 23.1458 120.312 21.8125C120.229 20.4792 120.156 19.1771 120.094 17.9062C120.052 16.6146 120.021 15.4583 120 14.4375C120 13.3958 120.021 12.5312 120.062 11.8438C120.104 11.1354 120.177 10.7083 120.281 10.5625C120.365 10.4583 120.573 10.3542 120.906 10.25C121.26 10.1458 121.646 10.0521 122.062 9.96875C122.5 9.88542 122.927 9.82292 123.344 9.78125C123.76 9.73958 124.062 9.73958 124.25 9.78125ZM124.062 13.75C123.917 13.8542 123.812 14.1771 123.75 14.7188C123.688 15.2396 123.635 15.875 123.594 16.625C123.573 17.3542 123.562 18.1354 123.562 18.9688C123.562 19.8021 123.552 20.5625 123.531 21.25C123.49 23.0417 123.469 24.4583 123.469 25.5C123.49 26.5208 123.51 27.2917 123.531 27.8125C123.573 28.3125 123.625 28.6354 123.688 28.7812C123.75 28.9062 123.833 28.9688 123.938 28.9688C124.021 28.9688 124.156 28.9062 124.344 28.7812C124.552 28.6562 124.771 28.5 125 28.3125C125.229 28.125 125.448 27.9271 125.656 27.7188C125.865 27.4896 126.01 27.2917 126.094 27.125C126.177 26.9583 126.281 26.6354 126.406 26.1562C126.531 25.6562 126.656 25.0833 126.781 24.4375C126.906 23.7708 127.031 23.0729 127.156 22.3438C127.281 21.5938 127.385 20.8854 127.469 20.2188C127.573 19.5312 127.646 18.9271 127.688 18.4062C127.75 17.8646 127.781 17.4792 127.781 17.25C127.76 16.8125 127.583 16.3646 127.25 15.9062C126.917 15.4479 126.531 15.0417 126.094 14.6875C125.677 14.3333 125.26 14.0625 124.844 13.875C124.448 13.6875 124.188 13.6458 124.062 13.75ZM140.406 13.5625C140.052 13.5833 139.698 13.5938 139.344 13.5938C139.01 13.5729 138.698 13.5625 138.406 13.5625C138.073 13.5625 137.76 13.5521 137.469 13.5312C137.51 14.6354 137.521 15.9271 137.5 17.4062C137.5 18.8646 137.479 20.3646 137.438 21.9062C137.417 23.4479 137.375 24.9583 137.312 26.4375C137.271 27.8958 137.219 29.1875 137.156 30.3125C137.948 30.2917 138.646 30.2917 139.25 30.3125C139.854 30.3333 140.177 30.3646 140.219 30.4062C140.26 30.4688 140.26 30.6771 140.219 31.0312C140.177 31.3646 140.115 31.7396 140.031 32.1562C139.948 32.5521 139.865 32.9167 139.781 33.25C139.698 33.6042 139.635 33.8229 139.594 33.9062C139.01 33.9271 138.469 33.9271 137.969 33.9062C137.49 33.9062 137.073 33.8854 136.719 33.8438C136.302 33.8229 135.927 33.7917 135.594 33.75C135.26 33.6875 134.906 33.6146 134.531 33.5312C134.219 33.4479 133.854 33.3438 133.438 33.2188C133.042 33.0938 132.635 32.9375 132.219 32.75C132.135 32.7083 132.031 32.5938 131.906 32.4062C131.802 32.2188 131.688 32.0208 131.562 31.8125C131.458 31.5833 131.375 31.3646 131.312 31.1562C131.229 30.9479 131.188 30.8021 131.188 30.7188C131.188 30.6979 131.281 30.6771 131.469 30.6562C131.656 30.6146 131.917 30.5833 132.25 30.5625C132.583 30.5208 132.958 30.4896 133.375 30.4688C133.792 30.4271 134.24 30.3958 134.719 30.375C134.677 29.7708 134.615 28.9792 134.531 28C134.469 27 134.396 25.9271 134.312 24.7812C134.25 23.6146 134.177 22.4271 134.094 21.2188C134.031 19.9896 133.979 18.8542 133.938 17.8125C133.896 16.75 133.875 15.8229 133.875 15.0312C133.875 14.2396 133.906 13.6875 133.969 13.375C133.99 13.3333 134 13.3021 134 13.2812C134 13.2396 134.01 13.1979 134.031 13.1562L133.156 12.9375C132.906 12.875 132.635 12.8021 132.344 12.7188C132.052 12.6354 131.76 12.5417 131.469 12.4375C131.385 12.3958 131.281 12.2812 131.156 12.0938C131.01 11.9062 130.875 11.6979 130.75 11.4688C130.604 11.2396 130.49 11.0312 130.406 10.8438C130.302 10.6354 130.25 10.4896 130.25 10.4062C130.25 10.3646 130.521 10.3229 131.062 10.2812C131.583 10.2188 132.24 10.1667 133.031 10.125C133.823 10.0833 134.677 10.0521 135.594 10.0312C136.531 10.0104 137.396 10 138.188 10C139 10 139.677 10.0104 140.219 10.0312C140.781 10.0312 141.083 10.0521 141.125 10.0938C141.188 10.1562 141.188 10.3646 141.125 10.7188C141.083 11.0521 141.01 11.4271 140.906 11.8438C140.823 12.2396 140.729 12.6146 140.625 12.9688C140.542 13.3021 140.469 13.5 140.406 13.5625ZM153.156 11.0938C153.198 11.1771 153.219 11.4688 153.219 11.9688C153.24 12.4688 153.24 13.0729 153.219 13.7812C153.219 14.4896 153.198 15.25 153.156 16.0625C153.115 16.8542 153.062 17.6042 153 18.3125C152.875 19.8958 152.729 21.4583 152.562 23C152.396 24.5417 152.229 25.9271 152.062 27.1562C151.917 28.3854 151.771 29.3958 151.625 30.1875C151.5 30.9583 151.427 31.3854 151.406 31.4688C151.365 31.5729 151.271 31.7292 151.125 31.9375C150.979 32.1458 150.823 32.3542 150.656 32.5625C150.49 32.75 150.323 32.9167 150.156 33.0625C150.01 33.2083 149.896 33.2812 149.812 33.2812C149.646 33.1354 149.344 32.5625 148.906 31.5625C148.719 31.125 148.49 30.5833 148.219 29.9375C147.948 29.2708 147.635 28.4583 147.281 27.5C146.927 26.5417 146.51 25.4167 146.031 24.125C145.573 22.8125 145.052 21.2917 144.469 19.5625C144.594 21.2708 144.698 22.7708 144.781 24.0625C144.865 25.3542 144.927 26.4792 144.969 27.4375C145.031 28.3958 145.073 29.2083 145.094 29.875C145.115 30.5208 145.125 31.0625 145.125 31.5C145.125 32.5 145.094 33.0729 145.031 33.2188C144.823 33.2188 144.594 33.125 144.344 32.9375C144.115 32.7292 143.896 32.4896 143.688 32.2188C143.479 31.9271 143.292 31.6458 143.125 31.375C142.979 31.1042 142.896 30.9062 142.875 30.7812C142.854 30.6979 142.792 30.3125 142.688 29.625C142.583 28.9375 142.458 28.0625 142.312 27C142.188 25.9167 142.042 24.7083 141.875 23.375C141.729 22.0208 141.583 20.6458 141.438 19.25C141.312 17.8542 141.208 16.5 141.125 15.1875C141.042 13.8542 141 12.6667 141 11.625C141 11.4583 141.208 11.2396 141.625 10.9688C142.042 10.6771 142.51 10.4062 143.031 10.1562C143.573 9.88542 144.073 9.65625 144.531 9.46875C144.99 9.26042 145.271 9.15625 145.375 9.15625C145.458 9.15625 145.542 9.39583 145.625 9.875C145.729 10.3542 145.833 10.9583 145.938 11.6875C146.062 12.4167 146.198 13.2292 146.344 14.125C146.51 15.0208 146.688 15.875 146.875 16.6875C147.042 17.5625 147.25 18.5521 147.5 19.6562C147.708 20.5938 147.969 21.7188 148.281 23.0312C148.615 24.3438 149 25.8021 149.438 27.4062C149.438 26.2812 149.438 25.0833 149.438 23.8125C149.458 22.5417 149.479 21.2812 149.5 20.0312C149.521 18.7812 149.542 17.5833 149.562 16.4375C149.604 15.2708 149.635 14.2396 149.656 13.3438C149.698 12.4479 149.729 11.7292 149.75 11.1875C149.792 10.6458 149.823 10.3542 149.844 10.3125C149.906 10.2292 150.104 10.2083 150.438 10.25C150.771 10.2708 151.135 10.3333 151.531 10.4375C151.927 10.5208 152.281 10.6354 152.594 10.7812C152.927 10.9062 153.115 11.0104 153.156 11.0938ZM167.938 24.6562C167.979 24.7188 167.969 24.9271 167.906 25.2812C167.865 25.6354 167.792 26.0208 167.688 26.4375C167.604 26.8542 167.51 27.25 167.406 27.625C167.323 27.9792 167.25 28.1875 167.188 28.25H166.875C166.812 28.25 166.75 28.2396 166.688 28.2188C166.792 29.2188 166.875 30.0208 166.938 30.625C167 31.2292 167.031 31.5625 167.031 31.625C167.031 31.7708 166.958 31.9792 166.812 32.25C166.688 32.5208 166.542 32.7708 166.375 33C166.208 33.2292 166.031 33.4062 165.844 33.5312C165.677 33.6771 165.562 33.6875 165.5 33.5625C165.396 33.375 165.177 32.8125 164.844 31.875C164.51 30.9375 164.135 29.6562 163.719 28.0312C163.302 27.9896 162.865 27.9479 162.406 27.9062C161.969 27.8646 161.521 27.8229 161.062 27.7812C160.604 27.7396 160.146 27.6875 159.688 27.625C159.25 27.5417 158.823 27.4688 158.406 27.4062C158.198 28.3229 157.99 29.1875 157.781 30C157.594 30.8125 157.406 31.5208 157.219 32.125C157.052 32.7292 156.906 33.2083 156.781 33.5625C156.656 33.9167 156.562 34.0938 156.5 34.0938C156.333 34.0938 156.167 33.9896 156 33.7812C155.833 33.5729 155.677 33.3229 155.531 33.0312C155.406 32.7396 155.302 32.4375 155.219 32.125C155.135 31.8125 155.094 31.5521 155.094 31.3438C155.135 30.8646 155.188 30.3646 155.25 29.8438C155.333 29.3229 155.396 28.8438 155.438 28.4062C155.5 27.8854 155.562 27.375 155.625 26.875H155.5C155.417 26.8333 155.302 26.7396 155.156 26.5938C155.01 26.4479 154.865 26.3021 154.719 26.1562C154.573 25.9896 154.448 25.8333 154.344 25.6875C154.24 25.5208 154.188 25.3958 154.188 25.3125C154.188 25.2708 154.333 25.2292 154.625 25.1875C154.938 25.1458 155.344 25.1042 155.844 25.0625C156.01 23.8125 156.188 22.5104 156.375 21.1562C156.562 19.8021 156.75 18.5312 156.938 17.3438C157.125 16.1562 157.302 15.125 157.469 14.25C157.656 13.3542 157.812 12.7396 157.938 12.4062C158.146 11.8438 158.51 11.3438 159.031 10.9062C159.552 10.4479 160.094 10.0729 160.656 9.78125C161.24 9.46875 161.792 9.22917 162.312 9.0625C162.833 8.89583 163.219 8.8125 163.469 8.8125C163.573 8.8125 163.688 9.05208 163.812 9.53125C163.958 9.98958 164.104 10.6146 164.25 11.4062C164.417 12.1979 164.583 13.125 164.75 14.1875C164.938 15.2292 165.115 16.3333 165.281 17.5C165.448 18.6667 165.604 19.8646 165.75 21.0938C165.917 22.3021 166.073 23.4583 166.219 24.5625C167.26 24.5625 167.833 24.5938 167.938 24.6562ZM159 24.8438C159.667 24.8021 160.333 24.7708 161 24.75C161.667 24.7292 162.323 24.6979 162.969 24.6562C162.802 23.8438 162.615 22.9375 162.406 21.9375C162.24 21.0833 162.042 20.0833 161.812 18.9375C161.583 17.7917 161.354 16.5312 161.125 15.1562C160.875 16.3854 160.625 17.5833 160.375 18.75C160.125 19.8958 159.896 20.9271 159.688 21.8438C159.458 22.9062 159.229 23.9062 159 24.8438ZM180.406 13.1562C180.51 13.2812 180.615 13.6354 180.719 14.2188C180.823 14.8021 180.896 15.4375 180.938 16.125C181 16.8125 181.021 17.4583 181 18.0625C181 18.6667 180.948 19.0625 180.844 19.25C180.76 19.375 180.552 19.6042 180.219 19.9375C179.885 20.25 179.5 20.6042 179.062 21C178.625 21.3958 178.167 21.7917 177.688 22.1875C177.229 22.5625 176.823 22.8854 176.469 23.1562C176.635 23.4896 176.844 23.9271 177.094 24.4688C177.344 24.9896 177.615 25.5521 177.906 26.1562C178.198 26.7396 178.479 27.3438 178.75 27.9688C179.042 28.5938 179.302 29.1667 179.531 29.6875C179.76 30.1875 179.948 30.6146 180.094 30.9688C180.24 31.3021 180.312 31.5 180.312 31.5625C180.312 31.6667 180.26 31.8125 180.156 32C180.073 32.1875 179.958 32.3646 179.812 32.5312C179.667 32.6771 179.51 32.8021 179.344 32.9062C179.177 33.0104 179.021 33.0312 178.875 32.9688C178.792 32.9479 178.635 32.7812 178.406 32.4688C178.177 32.1354 177.896 31.7292 177.562 31.25C177.25 30.75 176.896 30.1875 176.5 29.5625C176.125 28.9375 175.74 28.3125 175.344 27.6875C174.948 27.0417 174.573 26.4271 174.219 25.8438C173.865 25.2396 173.552 24.7083 173.281 24.25C173.24 26.4167 173.188 28.0833 173.125 29.25C173.083 30.4167 173.052 31.2708 173.031 31.8125C172.99 32.4583 172.948 32.8229 172.906 32.9062C172.844 32.9062 172.708 32.8229 172.5 32.6562C172.292 32.4688 172.073 32.25 171.844 32C171.615 31.75 171.396 31.5 171.188 31.25C171 31 170.885 30.8125 170.844 30.6875C170.802 30.4167 170.74 29.6354 170.656 28.3438C170.615 27.7812 170.573 27.0833 170.531 26.25C170.49 25.4167 170.438 24.4062 170.375 23.2188C170.333 22.0312 170.271 20.6354 170.188 19.0312C170.104 17.4271 170.021 15.5833 169.938 13.5C169.562 13.4792 169.26 13.4792 169.031 13.5C168.802 13.5 168.625 13.5104 168.5 13.5312C168.375 13.5521 168.281 13.5625 168.219 13.5625C168.156 13.5417 168.104 13.4896 168.062 13.4062C167.979 13.2396 167.917 12.9583 167.875 12.5625C167.833 12.1458 167.812 11.75 167.812 11.375C167.812 10.9583 167.875 10.5417 168 10.125C168.104 9.70833 168.24 9.44792 168.406 9.34375C168.49 9.28125 168.781 9.29167 169.281 9.375C169.781 9.4375 170.333 9.52083 170.938 9.625C171.542 9.72917 172.115 9.84375 172.656 9.96875C173.219 10.0938 173.583 10.1771 173.75 10.2188C173.896 10.2604 174.135 10.3333 174.469 10.4375C174.802 10.5208 175.188 10.6458 175.625 10.8125C176.062 10.9583 176.521 11.125 177 11.3125C177.5 11.5 177.969 11.6979 178.406 11.9062C178.844 12.1146 179.24 12.3229 179.594 12.5312C179.948 12.7396 180.219 12.9479 180.406 13.1562ZM173.375 21.9688C173.562 21.8646 173.812 21.6667 174.125 21.375C174.438 21.0625 174.771 20.7188 175.125 20.3438C175.5 19.9479 175.875 19.5417 176.25 19.125C176.625 18.6875 176.958 18.2812 177.25 17.9062C177.562 17.5312 177.812 17.2083 178 16.9375C178.188 16.6667 178.281 16.4896 178.281 16.4062C178.281 16.2604 178.146 16.0938 177.875 15.9062C177.625 15.6979 177.292 15.4896 176.875 15.2812C176.458 15.0729 175.969 14.875 175.406 14.6875C174.844 14.4792 174.271 14.3021 173.688 14.1562L173.375 21.9688ZM192.219 10.5625C192.219 10.6042 192.146 10.8542 192 11.3125C191.875 11.75 191.698 12.3229 191.469 13.0312C191.24 13.7188 190.969 14.5 190.656 15.375C190.365 16.25 190.052 17.1562 189.719 18.0938C189.385 19.0104 189.042 19.9167 188.688 20.8125C188.354 21.7083 188.042 22.5104 187.75 23.2188C187.708 24.6562 187.656 26 187.594 27.25C187.531 28.5 187.469 29.5938 187.406 30.5312C187.344 31.4688 187.281 32.2188 187.219 32.7812C187.156 33.3229 187.104 33.6042 187.062 33.625C186.958 33.7083 186.792 33.6771 186.562 33.5312C186.333 33.4062 186.094 33.2292 185.844 33C185.615 32.7708 185.396 32.5208 185.188 32.25C185 31.9792 184.875 31.75 184.812 31.5625C184.792 31.4792 184.76 31.2188 184.719 30.7812C184.677 30.3229 184.625 29.7188 184.562 28.9688C184.5 28.1979 184.427 27.3021 184.344 26.2812C184.281 25.2604 184.219 24.1354 184.156 22.9062C183.76 22.0312 183.344 21 182.906 19.8125C182.531 18.7917 182.104 17.5521 181.625 16.0938C181.167 14.6354 180.698 12.9583 180.219 11.0625C180.219 10.875 180.333 10.6875 180.562 10.5C180.792 10.2917 181.073 10.1146 181.406 9.96875C181.74 9.82292 182.094 9.70833 182.469 9.625C182.844 9.54167 183.177 9.53125 183.469 9.59375C183.552 9.71875 183.708 10.1979 183.938 11.0312C184.021 11.3854 184.125 11.8333 184.25 12.375C184.396 12.8958 184.552 13.5521 184.719 14.3438C184.885 15.1146 185.073 16.0208 185.281 17.0625C185.51 18.1042 185.771 19.3125 186.062 20.6875C186.375 19.3542 186.656 18.1771 186.906 17.1562C187.156 16.1354 187.375 15.25 187.562 14.5C187.771 13.7292 187.948 13.0833 188.094 12.5625C188.26 12.0208 188.396 11.5729 188.5 11.2188C188.75 10.3854 188.948 9.89583 189.094 9.75C189.24 9.66667 189.479 9.63542 189.812 9.65625C190.167 9.65625 190.51 9.70833 190.844 9.8125C191.198 9.89583 191.51 10.0104 191.781 10.1562C192.052 10.2812 192.198 10.4167 192.219 10.5625Z" fill="#DDE1F9"/>
<defs>
<clipPath id="clip0_2753_173">
<rect width="64" height="42" fill="white"/>
</clipPath>
</defs>
</svg>